<svg version="1.1" id="OBJECTS" xmlns="http://www.w3.org/2000/svg" x="0" y="0" viewBox="0 0 500 500" xml:space="preserve"><style>.st0{fill:#0c1941}</style><path class="st0" d="M252.8 336.4l-80.3-39.1c-31.1-19.3-49.7-51-49.7-85V98.9c0-16.8 12.7-31.5 31-35.7l32.8-7.7c43.3-10 89.1-10 132.4 0l33 7.7c18.1 4.2 30.8 18.9 30.8 35.7v113.6c0 33.8-18.5 65.6-49.6 84.9l-1 .5-79.4 38.6zm-73-51.5l73 34.8 73-34.8a85 85 0 0042.5-71.6V95c0-8.4-6.4-15.7-15.7-17.8l-35-8a295 295 0 00-129.6 0l-35 8c-9.2 2-15.7 9.4-15.7 17.8v118.3a85 85 0 0042.5 71.6zM190.9 365.1l.5-2.2a37 37 0 00-5.2-27l-1.5-2.2-1.5-2-1.5-1.8-1.5-1.7-1.5-1.5-1.5-1.4-1.3-1.3a51.5 51.5 0 00-5.5-4.3l-.8 2.4a44.8 44.8 0 00-2.1 15.3 33.2 33.2 0 002.4 10.3 27.2 27.2 0 009 11.2 39.9 39.9 0 005.3 3.3l.8.5a54.1 54.1 0 003.4 1.5l1 .5a44.2 44.2 0 001.5.4zM135.3 383.3l3.3 1.4 1.7.6a122.2 122.2 0 004.2 1.4l1.3.3 1.2.3a79.7 79.7 0 0011.7 1.6 66.2 66.2 0 009.5-.7 30 30 0 008-2.7 25.6 25.6 0 009.5-8.6 31 31 0 002.9-5c.6-1.3.8-2.2.8-2.2l-.7-.2c-.4 0-1-.3-1.9-.5a49 49 0 00-8.8-1.7 49.5 49.5 0 00-28 4.5 50 50 0 00-13 9.6c-1.1 1.1-1.7 2-1.7 2zM156.8 350.8l.9-2a37.4 37.4 0 00-4.7-36.2 46.3 46.3 0 00-2.4-3.5c-1.5-2-2.9-3.8-4-5l-1.6-1.7s-.6.8-1.3 2.2c-.8 1.4-1.8 3.4-2.7 6-1.9 5-3.4 11.8-1.7 19.3a25 25 0 004 9 42.7 42.7 0 008.8 9l2.4 1.6 2.3 1.3zM98.8 358.6a49.3 49.3 0 0010.8 6l2.6 1a79 79 0 008.6 2.7 52.6 52.6 0 009.4 1 37.2 37.2 0 008.4-1.2 26.4 26.4 0 0011-6.6c1.6-1.7 2.9-3.3 3.7-4.4l1.2-2-2.4-1.2-2.8-1.2-1.7-.7-1.8-.7a54.7 54.7 0 00-19.4-3.4 48.4 48.4 0 00-25.5 9c-1.4 1-2 1.7-2 1.7zM125.8 330.5s.6-.6 1.3-1.8a38 38 0 005.6-22 39.8 39.8 0 00-2-10 51.7 51.7 0 00-5-11.4c-.4-1-.9-1.8-1.3-2.5l-1.3-2s-.7.6-1.7 1.9a44.4 44.4 0 00-7.5 13.6 30.5 30.5 0 00-.6 15.4 30.5 30.5 0 006 12.2 56.5 56.5 0 006.5 6.6zM67.5 327.6a37.5 37.5 0 005.5 5 94.8 94.8 0 008.8 5.9 57.2 57.2 0 0011.5 4.7c2 .6 4.1 1 6.2 1.1a26.8 26.8 0 0023.3-10l-.5-.4a34.2 34.2 0 00-4.1-2.9l-3.2-2-2-1a42 42 0 00-6.3-3.1 55.7 55.7 0 00-10.1-2.8 46.8 46.8 0 00-26.8 4.3l-2.3 1.2zM99.1 305l1.6-1.7a36.5 36.5 0 009.5-20.5 62.8 62.8 0 00-2-19c-.3-1.2-.6-2.4-1-3.4 0-.5-.2-1-.4-1.4l-.4-1.2-1-2.3-2 1.6a47 47 0 00-9.8 12 31.5 31.5 0 00-3.3 10 26.3 26.3 0 00.5 9.8l1.4 4.5.8 2a46.2 46.2 0 004.4 7.5l1.2 1.5.5.6zM42.2 291.4l2.1 2.9 1.1 1.4a71.2 71.2 0 0013.9 12.7c3.5 2.3 7.4 4.2 11.4 5.3a28 28 0 0010 .7 28.2 28.2 0 0013-5l1.8-1.3-.5-.5-1.3-1.5a74.8 74.8 0 00-6.6-6l-1.8-1.5a67.5 67.5 0 00-8.5-5.2 35.6 35.6 0 00-10.6-3.5 46.7 46.7 0 00-21.5.7c-1.6.4-2.5.8-2.5.8zM77.5 275l1.9-1.4a37.7 37.7 0 0013.1-18.4 46 46 0 001.8-14.8l-.2-4.2a40 40 0 00-.8-6.3l-.3-1.8c0-.4-.2-.6-.2-.6l-2.2 1.2a46 46 0 00-11.9 10 31.5 31.5 0 00-5 9.2 30.9 30.9 0 001.4 22l.6 1.5.6 1.2 1.2 2.3zM24 251.2l.5.8a38 38 0 003 5.8A66.6 66.6 0 0037.7 271a42.2 42.2 0 0010.3 7.3c6.8 3.3 13.2 3 17.8 2 2.3-.6 4.2-1.3 5.5-1.9l2-1s-.4-.9-1.4-2.3l-.8-1.2-.9-1.3A51.3 51.3 0 0048 254.1a48.3 48.3 0 00-23.8-3zM61.8 241.5l2-1A37.6 37.6 0 0082.3 220l.8-2.5a47.5 47.5 0 002.2-11l.3-3.6.1-2.8v-2.5l-2.5.8a46 46 0 00-13.4 7.6 36.9 36.9 0 00-3.6 3.7 30.4 30.4 0 00-5.1 9.1 26.5 26.5 0 00-1.4 9.4 39.3 39.3 0 002.2 13.3zM13.7 208.3a56.2 56.2 0 003.9 11.7 57.7 57.7 0 009.8 15.1c1.5 1.6 3 3 4.7 4.3a25.9 25.9 0 0017.2 5c2.4 0 4.4-.4 5.8-.7l2.2-.6-.3-.7-.7-1.8-1.3-2.8-1.7-3.4a61.1 61.1 0 00-6.4-9.8l-.9-1-.8-1a41.6 41.6 0 00-13.4-9.7 51.4 51.4 0 00-15.5-4.5l-2.7-.1zM52.5 205.7l2.2-.6A37.6 37.6 0 0072 194.5l.8-.9a35.4 35.4 0 006-9.8l1.8-4.4.4-1 .1-.5.2-.5a48.2 48.2 0 002.2-8.1c.3-1.5.3-2.4.3-2.4l-2.5.3a45.2 45.2 0 00-14.6 5 32.9 32.9 0 00-6.2 4.8l-1 1a23.7 23.7 0 00-4.8 7.5 34.2 34.2 0 00-2.6 11 42.2 42.2 0 00.4 9.2zM11.2 164.3a52.5 52.5 0 001.8 12.2l.6 2.7.2.7.2.7.5 1.4a66.2 66.2 0 005.3 11.2 38.7 38.7 0 005.9 6.9 26.4 26.4 0 0014 6.2c2.3.4 4.3.4 5.7.3 1.5 0 2.3-.2 2.3-.2l-.5-2.6c-.4-1.7-.9-4-1.7-6.6a63.2 63.2 0 00-5.9-13.1c-1-1.5-2-3-3.2-4.3l-1-1.2a34.5 34.5 0 00-3-3 46.9 46.9 0 00-18.7-10.7l-2.5-.6zM49.9 168.8l2.2-.2a38.2 38.2 0 0020.8-8.8c5.5-5 9-10.8 11.4-15.4l.4-.8.4-.8a65.7 65.7 0 002.7-6.4s-1-.2-2.6-.2a44.7 44.7 0 00-15.3 2.3 32.4 32.4 0 00-11.1 7 26 26 0 00-4.4 5.9 34.8 34.8 0 00-4 11.8l-.3 1.6-.1 1.3-.1 2.7zM16.8 120.5l-.2 1-.2 2.5a75.2 75.2 0 00-.2 6.3v2.6c.4 7.2 2.2 16.2 6.7 23.3a26.5 26.5 0 0014.2 11 31.2 31.2 0 008 1.5L45 166v-1.4l-.2-1.6-.3-3.8-.7-4.4a58 58 0 00-5-14.4 43.6 43.6 0 00-6.8-9 50 50 0 00-12.9-9.8l-2.3-1zM54 132l2.2.3a37.6 37.6 0 0022.1-4.9c3-1.9 5.8-4.1 8-6.4 2.5-2.2 4.3-4.5 6-6.6l2-2.8a45.6 45.6 0 002.5-4l.4-.5-2.5-.6a46.2 46.2 0 00-15.5-.6 31.3 31.3 0 00-14.1 6.4 24 24 0 00-3.4 3.4 38.2 38.2 0 00-5.5 9.3l-.7 1.6a55.5 55.5 0 00-1.5 5.2v.2zM30.3 78.5v.2a36 36 0 00-1 3.2 79.4 79.4 0 00-1.7 8.7 60 60 0 00-.5 11.8 41 41 0 002.7 12.3 27.4 27.4 0 005.5 8.4 28.5 28.5 0 0014 8v-.3-.5a64.8 64.8 0 00.8-5l.2-1.7a92.4 92.4 0 00.3-6.4 50 50 0 00-2.3-15.1 44 44 0 00-5-10.2A49.3 49.3 0 0032.5 80l-2.2-1.5zM64.8 96.6s.8.4 2.2.8a38.1 38.1 0 0022.5-.8A53.7 53.7 0 00110.2 82l1.6-1.8s-.8-.5-2.3-1.1a44 44 0 00-15-3.4 33.5 33.5 0 00-10.6 1.6 26.7 26.7 0 00-11.8 8 40.5 40.5 0 00-6.2 9c-.8 1.5-1.1 2.4-1.1 2.4zM51.4 39.7l-1.7 3.1-.7 1.7a50.4 50.4 0 00-2.6 6.6 49.1 49.1 0 00-2.2 24 24.3 24.3 0 003.9 9.4 27.8 27.8 0 0010.2 9.3l2 1 1-2.5A58.7 58.7 0 0064.6 79l.3-2.5a41.2 41.2 0 00-.8-13.4l-.6-2.8a46.4 46.4 0 00-10.3-18.8l-1.8-1.9zM82 63.8s.6.5 2 1.1a38.2 38.2 0 0022.2 3.5 53.6 53.6 0 0023-10.7l2-1.5-2.1-1.5a43.8 43.8 0 00-14.2-6 32 32 0 00-13.1 0A28.2 28.2 0 0091 54a35.6 35.6 0 00-5.8 5.4l-1 1.2-.9 1.1-1.5 2.1zM79 5.5L77 8.2a89.8 89.8 0 00-3.5 5.3l-.6 1-.6 1.2A49.2 49.2 0 0065.6 39 26.4 26.4 0 0072 55.8a30.7 30.7 0 006 5.4l1.4-2.3.6-1.2.8-1.4a57.7 57.7 0 002.5-5.4l.9-2.1A48.6 48.6 0 0087.2 28a48.6 48.6 0 00-8.1-22.5zM139 4.3l-2.9.1-3.2.3-2 .3a62.8 62.8 0 00-12.1 3.7l-1.3.7-1.4.7a52.5 52.5 0 00-7.7 5.4 33.3 33.3 0 00-10.5 17 42.5 42.5 0 00-1.2 6.4l-.2 2.5s1 0 2.5-.4a47.1 47.1 0 006-1.7 58 58 0 0014.3-7.5l1-.8 1-.8A57.1 57.1 0 00132 17.4a78 78 0 002.5-4c.7-1.3 1.3-2.6 2-3.6l1.3-2.9 1.2-2.6z"/><g><path class="st0" d="M310.5 365.1s-.3-.8-.5-2.2a37 37 0 015.2-27l1.4-2.2 1.5-2 1.6-1.8 1.5-1.7 1.5-1.5 1.4-1.4 1.4-1.3a51.5 51.5 0 015.4-4.3l.9 2.4a44.8 44.8 0 012 15.3 33.2 33.2 0 01-2.3 10.3 27.2 27.2 0 01-9 11.2 39.9 39.9 0 01-5.3 3.3l-.8.5a54.1 54.1 0 01-3.4 1.5l-1 .5a44.2 44.2 0 01-1.5.4zM366 383.3s-1.1.6-3.2 1.4l-1.7.6a122.2 122.2 0 01-4.3 1.4l-1.2.3-1.3.3a79.7 79.7 0 01-11.6 1.6 66.2 66.2 0 01-9.5-.7 30 30 0 01-8-2.7 25.6 25.6 0 01-9.6-8.6 31 31 0 01-2.8-5l-.9-2.2.7-.2c.5 0 1.1-.3 2-.5a49 49 0 018.7-1.7 49.5 49.5 0 0128.1 4.5 50 50 0 0114.7 11.5zM344.6 350.8l-1-2a37.4 37.4 0 014.8-36.2 46.3 46.3 0 012.3-3.5l4-5 1.7-1.7 1.3 2.2c.8 1.4 1.8 3.4 2.7 6 1.8 5 3.3 11.8 1.6 19.3a25 25 0 01-4 9 42.7 42.7 0 01-8.7 9l-2.4 1.6-2.3 1.3zM402.5 358.6l-2.9 1.9a69.3 69.3 0 01-7.9 4.1l-2.5 1a79 79 0 01-8.6 2.7 52.6 52.6 0 01-9.5 1 37.2 37.2 0 01-8.3-1.2 26.4 26.4 0 01-11-6.6c-1.7-1.7-2.9-3.3-3.7-4.4l-1.2-2 2.4-1.2 2.7-1.2 1.7-.7 1.9-.7a54.7 54.7 0 0119.3-3.4 48.4 48.4 0 0127.6 10.7zM375.5 330.5l-1.3-1.8a38 38 0 01-5.6-22 39.8 39.8 0 012.1-10 51.7 51.7 0 014.9-11.4l1.4-2.5 1.3-2s.7.6 1.7 1.9a44.4 44.4 0 017.4 13.6 30.5 30.5 0 01.7 15.4A30.5 30.5 0 01382 324a56.5 56.5 0 01-6 6.2l-.5.4zM433.9 327.6l-2.5 2.4a68.8 68.8 0 01-17.3 11.2 46.8 46.8 0 01-12.3 3.1 26.8 26.8 0 01-23.3-10l.6-.4a34.2 34.2 0 014-2.9l3.3-2 1.9-1a42 42 0 016.4-3.1 51.5 51.5 0 0110-2.8 46.8 46.8 0 0127 4.3l2.2 1.2zM402.2 305l-1.6-1.7a36.5 36.5 0 01-9.5-20.5 62.8 62.8 0 012-19c.3-1.2.6-2.4 1-3.4l.5-1.4.4-1.2c.5-1.5 1-2.3 1-2.3l2 1.6a47 47 0 019.7 12 31.5 31.5 0 013.4 10 26.3 26.3 0 01-.6 9.8c-.3 1.6-.8 3-1.3 4.5l-.8 2a46.2 46.2 0 01-4.4 7.5l-1.2 1.5-.6.6zM459.1 291.4l-2 2.9-1.2 1.4a71.2 71.2 0 01-13.8 12.7 40.7 40.7 0 01-11.5 5.3 28 28 0 01-10 .7 28.2 28.2 0 01-13-5l-1.7-1.3.4-.5 1.4-1.5a74.8 74.8 0 016.6-6l1.8-1.5a67.5 67.5 0 018.4-5.2 35.6 35.6 0 0110.7-3.5 46.7 46.7 0 0124 1.5zM423.9 275l-2-1.4a37.7 37.7 0 01-13-18.4 46 46 0 01-1.7-10.2c-.2-1.6-.1-3.1-.1-4.6l.1-4.2.4-3.5.4-2.8.4-1.8.1-.6 2.3 1.2a46 46 0 0111.8 10 31.5 31.5 0 015.1 9.2 30.9 30.9 0 01-1.4 22l-.6 1.5-.6 1.2c-.7 1.5-1.3 2.3-1.3 2.3zM477.3 251.2l-.4.8a38 38 0 01-3 5.8 66.6 66.6 0 01-10.3 13.2 42.2 42.2 0 01-10.3 7.3c-6.8 3.3-13.1 3-17.8 2-2.3-.6-4.2-1.3-5.5-1.9l-2-1 1.4-2.3.8-1.2 1-1.3c.6-1 1.4-2 2.2-3a51.3 51.3 0 0120-15.5 48.3 48.3 0 0123.9-3zM439.6 241.5l-2.1-1a37.6 37.6 0 01-18.4-20.5l-.8-2.5a47.5 47.5 0 01-2.2-11c0-1.3-.2-2.5-.3-3.6v-2.8-2.5l2.4.8a46 46 0 0113.5 7.6 36.9 36.9 0 013.6 3.7 30.4 30.4 0 015.1 9.1 26.5 26.5 0 011.4 9.4 39.3 39.3 0 01-2 12.6l-.2.7zM487.7 208.3l-.9 3.4a56.2 56.2 0 01-3 8.3 57.7 57.7 0 01-9.8 15.1c-1.5 1.6-3 3-4.8 4.3a25.9 25.9 0 01-17.1 5c-2.4 0-4.4-.4-5.8-.7l-2.2-.6s0-.3.3-.7l.7-1.8 1.2-2.8 1.7-3.4a61.1 61.1 0 016.5-9.8l.8-1 .9-1a41.6 41.6 0 0113.4-9.7 51.4 51.4 0 0115.5-4.5l2.6-.1zM448.9 205.7l-2.2-.6a37.6 37.6 0 01-17.4-10.6l-.7-.9a35.4 35.4 0 01-6-9.8c-.8-1.5-1.3-3-1.8-4.4l-.4-1-.2-.5-.1-.5a48.2 48.2 0 01-2.2-8.1l-.4-2.4s1 0 2.6.3a45.2 45.2 0 0114.6 5 32.9 32.9 0 018.1 6.9 27 27 0 014.7 8.6 36.2 36.2 0 011.4 18zM490.2 164.3s0 1.3-.3 3.5a82.7 82.7 0 01-2.2 11.4l-.2.7-.2.7-.5 1.4a66.2 66.2 0 01-5.3 11.2 38.7 38.7 0 01-5.8 6.9 26.4 26.4 0 01-14 6.2c-2.3.4-4.4.4-5.8.3-1.4 0-2.3-.2-2.3-.2l.5-2.6 1.8-6.6a63.2 63.2 0 015.8-13.1c1-1.5 2-3 3.2-4.3l1-1.2a34.5 34.5 0 013-3 46.9 46.9 0 0121.3-11.3zM451.5 168.8l-2.3-.2a38.2 38.2 0 01-20.7-8.8c-5.5-5-9-10.8-11.4-15.4l-.4-.8-.4-.8a39.8 39.8 0 01-2.7-6.4s1-.2 2.6-.2a44.7 44.7 0 0115.3 2.3 32.4 32.4 0 0111 7 26 26 0 014.4 5.9 34.8 34.8 0 014 11.8c.2.6.3 1 .3 1.6l.2 1.3.1 2.7zM484.6 120.5l.1 1 .3 2.5a75.2 75.2 0 01.2 6.3v2.6a49.3 49.3 0 01-6.7 23.3 26.6 26.6 0 01-14.3 11c-2.2.7-4.2 1-5.6 1.2l-2.3.3V166l.1-1.4.1-1.6c0-1.2.2-2.5.4-3.8l.7-4.4a58 58 0 015-14.4 43.6 43.6 0 016.8-9 50 50 0 0115.2-10.9zM447.4 132l-2.3.3a37.6 37.6 0 01-22-4.9c-3.1-1.9-5.9-4.1-8.1-6.4-2.4-2.2-4.3-4.5-5.9-6.6l-2-2.8-1.6-2.3-1-1.6-.3-.6 2.5-.6a46.2 46.2 0 0115.5-.6 31.3 31.3 0 0114 6.4 24 24 0 013.4 3.4 38.2 38.2 0 015.6 9.3l.6 1.6a55.5 55.5 0 011.6 5.4zM471 78.5a7.3 7.3 0 00.3.9 72 72 0 012.5 11.2c.5 3.5.7 7.6.4 11.8a41 41 0 01-2.7 12.3 27.4 27.4 0 01-5.5 8.4 28.5 28.5 0 01-11.7 7.3l-2.2.6v-.2l-.1-.5a64.8 64.8 0 01-.8-5c0-.5 0-1.1-.2-1.7a92.4 92.4 0 01-.2-6.4A50 50 0 01453 102a44 44 0 015-10.2 49.3 49.3 0 0113-13.4zM436.6 96.6s-.8.4-2.2.8a38.1 38.1 0 01-22.6-.8A53.7 53.7 0 01391.1 82l-1.6-1.8s.8-.5 2.3-1.1a44 44 0 0115.1-3.4 33.5 33.5 0 0110.5 1.6 26.7 26.7 0 0112 8 40.5 40.5 0 017.2 11.4zM450 39.7l1.6 3.1.8 1.7a50.4 50.4 0 012.5 6.6 49.1 49.1 0 012.2 24 24.3 24.3 0 01-3.8 9.4 27.8 27.8 0 01-10.2 9.3l-2 1-1-2.5a58.7 58.7 0 01-3.3-13.2l-.3-2.5a41.2 41.2 0 01.7-13.4l.7-2.8a46.4 46.4 0 0112-20.7zM419.4 63.8s-.7.5-2 1.1a38.2 38.2 0 01-22.3 3.5 53.6 53.6 0 01-23-10.7l-2-1.5 2.2-1.5a43.8 43.8 0 0114.2-6 32 32 0 0113.1 0 28.2 28.2 0 0110.7 5.3 35.6 35.6 0 015.8 5.4l1 1.2.8 1.1 1.5 2.1zM422.3 5.5a50.4 50.4 0 005.6 8l.7 1 .6 1.2a49.2 49.2 0 016.5 23.3 26.4 26.4 0 01-6.3 16.8 30.7 30.7 0 01-5.9 5.4l-1.4-2.3-.7-1.2-.7-1.4a57.7 57.7 0 01-2.6-5.4l-.8-2.1a48.6 48.6 0 01-3.1-20.8 48.6 48.6 0 018-22.5zM362.4 4.3l2.8.1 3.2.3c.7 0 1.3.2 2 .3a62.8 62.8 0 0112.2 3.7l1.3.7a42.5 42.5 0 0113 10.3 31.7 31.7 0 015.1 8.8 37.8 37.8 0 012.6 10.4l.2 2.5s-1 0-2.4-.4a47.1 47.1 0 01-6.1-1.7 58 58 0 01-14.3-7.5l-1-.8-1-.8a57.1 57.1 0 01-10.6-12.8 78 78 0 01-2.5-4l-2-3.6a62 62 0 01-2.5-5.5z"/></g><path class="st0" d="M259 365.7c-4.6-3.8-8.3-14.9-8.3-14.9s-3.8 11-8.4 14.9c-4.5 3.8-28.6 9.9-28.6 9.9s24 6 28.6 9.9c4.6 3.8 8.4 14.8 8.4 14.8s3.7-11 8.3-14.8c4.6-3.9 28.6-10 28.6-10s-24-6-28.6-9.8z"/><g><path class="st0" d="M252.5 191c30.8-20.4 54.1-.6 54.4-.4.6.6 1.5.4 2-.3a2 2 0 00-.3-2.5 47.3 47.3 0 00-56.3-.6v4l.2-.1zM252.6 211.2c30.8-20.5 54.2-.7 54.4-.5.7.6 1.6.4 2-.3a2 2 0 00-.2-2.5 47.3 47.3 0 00-56.3-.6v4l.1-.1zM307.1 230.8c.7.6 1.6.4 2-.3a2 2 0 00-.2-2.5 47.3 47.3 0 00-56.3-.6v4l.2-.1c30.8-20.5 54-.7 54.3-.5z"/><path class="st0" d="M318.7 164.2a44.7 44.7 0 00-32.8-12.6c-15 0-28.5 6.4-35.1 16.3-6.9-9.8-20.5-16-35.4-15.9-13.3.1-25.4 5-32.6 13l-11.4-1.8.6 109.1 70.5-.4c1.6 4 5 6.7 9 6.7s7.3-2.8 8.9-6.8l70.4-.5-.7-109-11.4 1.9zm-69.3 23c-31.7-19-55.1 1.5-55.4 1.7a2 2 0 00-.2 2.5c.5.7 1.4.9 2 .3.2-.2 22.9-20 53.6-.7l.1 16.2c-31.7-19-55.1 1.6-55.4 1.8a2 2 0 00-.2 2.5c.5.7 1.4.9 2 .3.3-.2 23-20 53.6-.7l.2 16.2c-31.7-19-55.2 1.6-55.4 1.8a2 2 0 00-.3 2.5c.5.7 1.4.9 2 .3.3-.2 23-20 53.7-.7l.1 26a44 44 0 00-33.9-13.8 44 44 0 00-33.7 14.3l-.5-86c1.3-2.2 3-4.2 5-6 6.8-6.3 17.3-10.1 28.7-10.2 14.8-.1 28 6 33.9 15.8l.1 15.8zm71 69.6a44 44 0 00-33.9-13.8 44 44 0 00-33.7 14.3l-.2-26V211.2l-.1-3.9-.1-16.2v-13.3l-.1-2.3v-4.2c5.7-9.8 18.9-16.1 33.7-16.2 11.4-.1 22 3.6 28.8 9.8 2 1.8 3.8 3.8 5.1 6l.5 86z"/></g><g><path class="st0" d="M176.5 123.4L216 146a40 40 0 00-3 7.5l3.1.1a37.8 37.8 0 0172 .7l3.3-.1c-.9-3-2-5.9-3.5-8.5l39-22.3c.8-.5 1-1.4.6-2.2-.4-.7-1.4-1-2.2-.5l-39 22.3c-2-3-4.6-5.9-7.4-8.3l26.5-31.3c.6-.6.5-1.6-.2-2.2-.6-.5-1.6-.4-2.2.2l-26.5 31.3c-3-2.2-6.3-4-9.8-5.3l16.1-44c.3-.7 0-1.6-.9-2-.8-.2-1.7.2-2 1l-16.2 44c-3.3-1-6.8-1.6-10.4-1.7v-51c0-.8-.7-1.5-1.6-1.5s-1.6.7-1.6 1.6v51c-3.6.1-7 .7-10.4 1.8l-16.2-44.2a1.6 1.6 0 00-3 1.1l16.3 44.1a40.6 40.6 0 00-9.6 5.5l-26.8-31.7c-.6-.6-1.6-.7-2.2-.2-.7.6-.8 1.6-.2 2.2l26.8 31.7a40.9 40.9 0 00-7.1 8.2L178 120.7c-.8-.5-1.8-.2-2.2.5-.4.8-.2 1.7.6 2.2zM325.9 149.3l-29.6 5.1c2.4.2 5 .6 8.1 1.3.5 0 .8.2 1.2.3l20.8-3.7c.9-.1 1.4-1 1.3-1.8-.2-.8-1-1.4-1.8-1.2zM203.8 153.8l-26.3-4.5c-.8-.2-1.6.4-1.8 1.2-.1.9.4 1.7 1.3 1.8l17 3c2.7-.6 6-1.1 9.8-1.5z"/></g><g><path class="st0" d="M175.7 425h-5.8v-7.1h-8v9.7c-1.2-.8-2.6-1.4-4-1.9s-2.9-.8-4.5-.8H97.1v-8.2h-7.7v9c-1.4-.5-2.9-.8-4.4-.8H2.8v7.8h65.3v46l-8-6.6a27.9 27.9 0 00-1.2-17 26.9 26.9 0 00-14-14 28.4 28.4 0 00-10.3-2.5h-.4a12 12 0 00-8.6 3.7 11.7 11.7 0 00-3.4 8.5v5.3c0 3.3 1.1 6.2 3.5 8.5 2.3 2.4 5.2 3.5 8.6 3.5l13.7-1v-5.7l-13.7-1c-1.2 0-2.2-.4-3-1.2a4.1 4.1 0 01-1.3-3v-5.5c0-1.1.5-2.2 1.3-3 .8-.8 1.8-1.3 3-1.4a19.6 19.6 0 0113.4 5.8c1.8 1.6 3.1 3.6 4 6a18.6 18.6 0 01-4.1 20.6c-1.8 1.7-3.8 3-6.1 4a19.6 19.6 0 01-14.8 0 21 21 0 01-10.9-10 16.6 16.6 0 01-1.6-7.3H8.4A26.8 26.8 0 0024 490 26.3 26.3 0 0057 479.3l11 8v6.4h7.7v-61H85c1 0 1.9.3 2.7 1s1.4 1.5 1.7 2.6v57.4H97v-61h8.1l.2 5.8a15.9 15.9 0 0111.9 5.1 17.9 17.9 0 014 16.5 18 18 0 00-9.6 14.7v6c0 3.4 1.2 6.2 3.5 8.5 2.3 2.4 5.1 3.6 8.4 3.6l7.7-1v-6l-7.7-1c-1 0-2-.3-2.9-1a3.9 3.9 0 01-1.2-3v-5.2c0-1.3.3-2.5.8-3.8a10.6 10.6 0 015.5-5.4c1.2-.6 2.5-.9 3.9-.9 2.5 0 4.7.8 6.6 2.3 2 1.5 3.2 3.5 3.7 5.9v19.9h8v-61H153.1c2.4.1 4.5 1.1 6.2 2.8a8.5 8.5 0 012.6 6.3V493h7.9v-60.4H216v6.2l-36 11.8V479l36 11.8v2.9h7.7v-61h4.8v-7.8h-52.8zM140 461a18 18 0 00-10.4-3.2l.1-1.5V455a24.5 24.5 0 00-14.9-22.2h25.2V461zm75.9 21.5l-28.2-9.2v-17l28.2-9.2v35.4z"/><path class="st0" d="M186.3 492.4l12.3 2.4 1.5-5.7-11.9-4.1zM496.3 432.7v-7.8H258.2v7.8h41v5.8L263 450.3V479l36.2 11.7v3h7.7v-49a17.1 17.1 0 0110.3 1c1.2.5 2.1 1.1 3 1.8.8.8 1.2 1.6 1.2 2.5 0 .7-.2 1.3-.7 2l-3 2.8c-.6.6-1.2.9-1.8.9-.7 0-1.3-.3-1.8-.9l-1.7-1.3-4.5 6.2.7.7a10.3 10.3 0 0014.6 0l3-3c1-1 1.7-2.1 2.2-3.4.5-1.3.8-2.6.9-4 0-2.7-1-5.2-3-7.3l-.2-.1a22.4 22.4 0 00-19.2-6v-3.8h35.6a23.2 23.2 0 00-6 15.7v27.9a20.2 20.2 0 003.3 10.9c1.2 1.6 2.6 3 4.2 4 1.7 1.1 3.6 1.6 5.8 1.6a15 15 0 004.2-.7l-2.8-7.3a8 8 0 01-1.4.3c-.8 0-1.5-.3-2.2-.8a7.7 7.7 0 01-1.8-2.1 12 12 0 01-1.6-6v-27.8a15 15 0 014.7-11.1c1.5-1.5 3.1-2.6 5-3.4 2-.8 4-1.2 6-1.2H408.7V453c-2.3-1-4.4-1.5-6.4-1.5-3.7 0-6.9 1.2-9.5 3.7a16.6 16.6 0 00-6.2-5 17.3 17.3 0 00-19.5 2.8 18.6 18.6 0 00-5.2 11v5.7a11 11 0 003.3 8 11 11 0 008 3.3l7-1v-5.8l-7-1c-1 0-1.9-.3-2.6-1s-1-1.5-1-2.5V465a9.7 9.7 0 013-6.4 9 9 0 016.5-2.6c2 0 3.9.7 5.8 2 1.9 1.4 3.3 3 4.2 5.2v.7l-.2.7a14.8 14.8 0 00.3 3l5.8-1v-.6c0-1.7.7-3.2 2.2-4.6a7 7 0 019.2-.6 6 6 0 012.3 3.8v29h7.7v-61h25.9v15.7c0 2 .3 3.8 1.1 5.5.8 1.8 1.8 3.3 3.2 4.7a14.1 14.1 0 0010.2 4.2h3.4c4.2 0 7.8-1.5 10.7-4.5.7 2 1 4 1 6.4 0 2.7-.6 5.2-1.7 7.5a20.6 20.6 0 01-10.6 10.3 18.6 18.6 0 01-15.3-.4 21.4 21.4 0 01-6.5-5c-1.9-2-3.3-4.3-4.4-6.9-1-2.6-1.6-5.2-1.6-8v-1.1l.2-1.1-5.7-.1a36.7 36.7 0 00-.7 6.2 25 25 0 008 18.2 28.2 28.2 0 0018.5 7.3 27 27 0 0019.5-8 28.2 28.2 0 008.2-19.6c0-1.8-.2-3.4-.6-5a36 36 0 00-1.5-4.8l-2.5-6.4-.3.2-7.7.1c0 2-.7 3.6-2 5s-3.1 2-5 2h-3.4c-1.6 0-3-.4-4.2-1.4s-2-2.2-2.4-3.6a8 8 0 012.7-4.2 7 7 0 014.6-1.6h12.9a13 13 0 019.4 3.8c2.5 2.5 3.8 5.7 3.8 9.5v25.2a9.4 9.4 0 009.6 9.6v-7.6c-.8-.1-1.2-.4-1.4-.7a2 2 0 01-.3-1v-25.5a21.2 21.2 0 00-21.1-21.1h-12.9c-2.7 0-5.2.7-7.4 2.1v-6h46.2zm-197.1 49.8l-28.4-9.3V456l28.4-9.4v35.9z"/></g></svg>