<svg version="1.1" id="OBJECTS" xmlns="http://www.w3.org/2000/svg" x="0" y="0" viewBox="0 0 500 500" xml:space="preserve"><style>.st0{fill:#edf2f7}</style><path class="st0" d="M252 339l-80-39c-31-20-50-51-50-85V101c0-17 13-31 31-35l33-8c43-10 89-10 132 0l33 8c18 4 31 18 31 35v114c0 34-19 65-50 85h-1l-79 39zm-73-52l73 35 73-35c27-16 43-43 43-71V98c0-9-7-16-16-18l-35-8c-42-10-87-10-130 0l-35 8c-9 2-15 9-15 18v118c0 28 16 55 42 71zM190 368l1-3a35 35 0 000-13l-1-5-2-4-1-2-2-3-1-2-1-2-2-1-1-2-2-2-1-1-2-1-1-2-1-1h-1l-2-2-1 3a51 51 0 00-2 10 37 37 0 000 10l2 5c2 3 3 6 6 8l3 3 2 2 2 1 1 1h1l1 1a29 29 0 004 1h1v1zM135 386l3 1 1 1 2 1h4l1 1h3l3 1h15l4-1 4-2 4-3c3-1 5-4 6-5l3-6 1-2h-1-2l-3-1h-2l-2-1h-2-2l-5-1a42 42 0 00-21 5l-4 3-4 2-5 5-1 2zM156 353l1-2a37 37 0 002-22l-1-3-1-2-1-3-1-2-2-2-1-2-1-2-1-2-4-5-2-1-1 2-3 6c-2 5-3 12-1 19a24 24 0 004 9 35 35 0 007 8l1 1 3 2 2 1zM98 361l3 2 8 4 3 1 2 1 3 1 3 1h3l3 1h7l5-1a25 25 0 008-5l3-2a36 36 0 005-6l-3-2-2-1h-2l-2-1-4-2a317 317 0 00-10-2h-5a50 50 0 00-26 9l-2 2zM125 333l2-2 2-5a43 43 0 003-12 38 38 0 00-1-10l-1-5a45 45 0 00-3-8l-2-3-1-3-2-2-1 2-4 5-4 9-1 10v3l1 2a22 22 0 001 5l2 4 2 1a25 25 0 003 5l2 2 2 1v1zM67 330l2 3 3 2 4 3a101 101 0 0011 6 38 38 0 0017 3l5-1a29 29 0 0012-8l1-1-1-1-1-1-3-2-3-2-2-1-2-1-4-2-3-1h-2l-3-1-2-1a48 48 0 00-27 5l-2 1zM98 308l2-2a33 33 0 007-12 43 43 0 003-9l-1-10-1-9-1-3-1-1v-2l-1-2-2 2a48 48 0 00-8 8l-2 4-2 4a30 30 0 00-2 11l1 2v3l2 4v2l1 2a35 35 0 005 8zM42 294a42 42 0 003 4l1 2 4 3c2 3 5 6 9 8a40 40 0 0016 6h5l8-2 5-3 2-1-1-1-1-1-5-5-2-1-2-2-4-3-2-1-2-1-5-2-6-2H51l-7 1-2 1zM77 277l2-1 4-4a35 35 0 007-10l1-2 1-2 1-6 1-4v-5a54 54 0 00-1-8v-3l-1-1v-1l-2 1-5 4a34 34 0 00-10 10l-1 3-1 2c-2 7-1 14 0 19l1 3 1 2 1 1 1 2zM23 254l1 1 1 2 2 3 2 5 4 4 4 5a47 47 0 0010 7c7 3 13 3 18 2l6-2 2-1-2-2-1-1-1-2-2-3a51 51 0 00-17-14l-3-1-5-2a44 44 0 00-16-1h-3zM61 244l2-1 5-3 6-5a36 36 0 008-12v-3l1-2a51 51 0 002-13v-2-3l-2 1a49 49 0 00-10 5l-4 3-2 1-1 1-1 1-3 5a27 27 0 00-2 5v2l-1 2v9l1 4v3a14 14 0 001 2zM13 211a76 76 0 004 12l6 10 2 2 2 3 4 4a26 26 0 0018 5l5-1h3l-1-1v-2l-2-3-1-3-1-2-1-2a47 47 0 00-6-7v-1a46 46 0 00-9-7l-1-1h-2l-2-2-5-1-4-2-6-1h-3zM52 208h2l5-2a41 41 0 0011-7l1-2 1-1 1-1a57 57 0 005-9l2-4v-1-1h1v-2l1-3 1-3v-2h-2a40 40 0 00-19 8l-2 2-1 1-1 1a24 24 0 00-5 8 36 36 0 00-1 16v2zM11 167v7l1 5 1 3v1l1 1a45 45 0 009 17l1 1 1 1 2 1a26 26 0 0012 5h8v-3l-2-6a57 57 0 00-9-18l-1-1-1-1-2-2-5-3a55 55 0 00-14-7l-2-1zM49 171h3l5-1 4-1 4-1 7-6c6-4 9-10 12-15v-1-1l1-1 1-3 1-1v-1h-3a39 39 0 00-24 7l-2 2-2 2-2 4-2 4-1 4-1 4-1 1v4zM16 123v4l-1 3 1 3v2c0 8 2 17 6 24a29 29 0 0011 9l3 2 6 1h2v-2-2-1-4l-1-5-1-4-2-5-1-3-1-2-3-5a49 49 0 00-19-15zM53 135h8a33 33 0 0012-3l5-2 8-6 6-7 2-3 1-2 1-2h1l-3-1-6-1a35 35 0 00-20 4l-4 3-1 1a26 26 0 00-5 6l-2 4-1 2v1l-1 3-1 2v1zM30 81l-1 1v2a73 73 0 00-2 21l2 12 3 5 3 4a27 27 0 0011 7l3 1v-1-2l1-3v-2-2-4-5-3l-1-2a37 37 0 00-4-11l-2-5a47 47 0 00-11-12l-2-1zM64 99a32 32 0 008 2 40 40 0 0012-1l5-1c7-3 12-7 16-10l3-3 1-1v-1l2-2-2-1-6-2a40 40 0 00-14-1 26 26 0 00-10 4l-4 2-2 2-2 2a39 39 0 00-6 9l-1 2zM51 42l-2 3-1 2v2l-2 4c-2 7-4 16-2 25l1 5a28 28 0 0015 14l1-2 2-7 1-4v-3-2-5-5l-1-3v-3a46 46 0 00-6-14l-5-5-1-2zM81 66l2 1 6 3 7 1h10l17-7 1-1h1l1-1 3-2 2-1-2-2a39 39 0 00-15-6l-5-1a26 26 0 00-8 1l-2 1-5 2-3 2-2 2-2 1-2 3-1 1-1 1-2 2zM78 8l-2 3-2 3-1 2-1 1-1 1c-3 7-6 15-6 24a26 26 0 006 16 31 31 0 006 6l2-2v-2l1-1 2-3 1-2v-3l2-4 1-5 1-3v-2a38 38 0 00-1-12 53 53 0 00-6-15l-2-2zM138 7h-6-2l-2 1-5 1-5 2-1 1h-1a38 38 0 00-8 6l-2 2-2 2-3 4-2 5-2 4-1 4v5h2l3-1 3-1 4-2 4-2 5-2 2-2h1l1-1a60 60 0 0010-13l3-4 2-4 1-3 1-2z"/><g><path class="st0" d="M310 368l-1-3a35 35 0 010-13l1-5 2-4 1-2 2-3 1-2 1-2 2-1 1-2 2-2 1-1 2-1 1-2 1-1h1l2-2 1 3a51 51 0 012 10 37 37 0 01-1 10l-1 5-6 8-3 3-2 2-2 1-2 1-1 1a29 29 0 01-4 1h-1v1zM365 386l-3 1-2 1-1 1h-3-1l-1 1h-3l-3 1h-15l-4-1-5-2-3-3c-3-1-5-4-6-5l-3-6-1-2h3l3-1h2l2-1h4l5-1a42 42 0 0121 5l4 3 4 2a50 50 0 016 7zM344 353l-1-2a37 37 0 01-1-22v-3l1-2 1-3 1-2 2-2 1-2 1-2 1-2 4-5 2-1a72 72 0 004 8c2 5 3 12 1 19a24 24 0 01-4 9 35 35 0 01-5 7l-2 1-1 1-3 2-2 1zM402 361l-3 2-8 4-2 1-3 1-3 1-3 1h-3l-3 1h-7l-5-1a25 25 0 01-8-5l-3-2a36 36 0 01-5-6l3-2 2-1h2l2-1 4-2a317 317 0 0110-2h5a50 50 0 0126 9l2 2zM375 333l-1-2-3-5a43 43 0 01-3-12 38 38 0 011-10l1-5a45 45 0 013-8l2-3 1-3 2-2 1 2 4 5 4 9 1 10v3l-1 2v2l-1 3-2 4-2 1a25 25 0 01-3 5l-2 2-2 1v1zM433 330l-2 3-3 2-4 3a101 101 0 01-11 6 38 38 0 01-17 3l-5-1a29 29 0 01-12-8l-1-1v-1l2-1 3-2 3-2 2-1 2-1 4-2 2-1h3l3-1 2-1a48 48 0 0129 6zM402 308l-2-2a33 33 0 01-7-12 43 43 0 01-2-9v-10l1-9 1-3 1-1v-2l1-2 2 2a48 48 0 018 8l2 4 2 4a30 30 0 012 11l-1 2v3l-2 4v2l-1 2a35 35 0 01-5 8zM458 294l-2 3-1 1-1 2-4 3c-2 3-5 6-9 8a40 40 0 01-16 6h-5l-8-2-5-3-2-1 1-1 1-1 5-5 2-1 1-2 4-3 3-1 2-1 5-2 6-2h14a50 50 0 019 2zM423 277l-2-1-4-4a35 35 0 01-7-10l-1-2-1-2-1-6v-4l-1-5a54 54 0 011-8v-3l1-1v-1l2 1 6 4a34 34 0 019 10l1 3 1 2c2 7 1 14 0 19l-1 3-1 2-1 1-1 2zM477 254l-1 1-1 2-2 3-2 5-4 4-4 5a47 47 0 01-10 7c-7 3-13 3-18 2l-6-2-2-1 2-2 1-1 1-2 2-3a51 51 0 0117-14l3-1 5-2a44 44 0 0116-1h3zM439 244l-2-1-5-3-6-5a36 36 0 01-8-12v-3l-1-2a51 51 0 01-2-13v-2-3l2 1a49 49 0 0110 5l4 3 2 1 1 1 1 1 3 5a27 27 0 012 5v2l1 2v9l-1 4v3a14 14 0 01-1 2zM487 211l-1 3a51 51 0 01-3 9l-6 10-2 2-2 3-4 4a26 26 0 01-18 5l-5-1h-3l1-1v-2l1-3 2-3 1-2 1-2a47 47 0 016-7v-1a46 46 0 019-7l1-1h1l3-2 4-1 5-2 6-1h3zM448 208h-2l-5-2a41 41 0 01-11-7l-1-2-1-1-1-1a57 57 0 01-5-9l-2-4v-1l-1-1v-2l-1-3-1-3v-2a85 85 0 009 1 41 41 0 0112 7l2 2 1 1 1 1a24 24 0 015 8 36 36 0 012 16l-1 2zM490 167l-1 3v4l-1 5-1 3v1l-1 1a45 45 0 01-9 17l-1 1-1 1-2 1a26 26 0 01-12 5h-8v-3l2-6a57 57 0 019-18l1-1 1-1 2-2 5-3a55 55 0 0114-7l3-1zM451 171h-2l-6-1-4-1-4-1-7-6c-6-4-9-10-12-15v-1-1l-1-1-1-3-1-1v-1h3a39 39 0 0124 7 15 15 0 014 4l2 4 2 4 1 4 1 4 1 1v4zM484 123v4l1 3v4l-1 1c0 8-2 17-6 24a27 27 0 01-20 12h-2v-2-2-1-4l1-5 1-4 2-5 1-3 1-2 3-5a49 49 0 0117-14l2-1zM447 135h-8a33 33 0 01-12-3l-5-2-8-6-6-7-2-3-1-2-1-2h-1l3-1 6-1a35 35 0 0119 4l5 3 1 1a26 26 0 015 6 46 46 0 014 10l1 2v1zM470 81l1 1v2a73 73 0 013 21l-3 12-3 5-3 4a27 27 0 01-11 7l-3 1v-1-2-3l-1-2v-2-4-5l1-3v-2a37 37 0 014-11l2-5a47 47 0 0111-12l2-1zM436 99l-2 1-6 1a40 40 0 01-12-1l-5-1c-7-3-12-7-16-10l-2-3-1-1-1-1-2-2 2-1 7-2a40 40 0 0114-1 26 26 0 0110 4l4 2 1 2 2 2a39 39 0 016 9l1 2zM449 42l2 3 1 2 1 2 1 4c2 7 4 16 2 25l-1 5a28 28 0 01-13 13l-2 1-1-2-2-7-1-4v-3-2-5-5l1-3v-3a46 46 0 016-14l5-5 1-2zM419 66l-2 1-6 3-7 1h-10l-17-7-1-1h-1l-1-1-3-2-2-1 3-2a39 39 0 0114-6l5-1a26 26 0 018 1l2 1 5 2 4 2 1 2 2 1a33 33 0 013 4l1 1 2 2zM422 8l2 3 2 3 1 2 1 1 1 1c3 7 6 15 6 24a26 26 0 01-6 16l-4 4-2 2-2-2v-2l-1-1-2-3-1-2-1-3-1-4-1-5-1-3v-2a38 38 0 011-12 53 53 0 016-15l2-2zM362 7h8l2 1 5 1 5 2 1 1h1a38 38 0 018 6l2 2 2 2 3 4 2 5 2 4 1 4v5l-2-1h-3l-3-1-4-2-4-2-4-2-2-2-1-1-1-1a60 60 0 01-11-12l-3-4-2-4-1-3-1-2z"/></g><path class="st0" d="M258 368c-4-4-8-15-8-15s-4 11-8 15c-5 4-29 10-29 10s24 6 29 10c4 4 8 15 8 15s4-11 8-15c5-4 29-10 29-10s-24-6-29-10z"/><g><path class="st0" d="M252 194c31-21 54-1 54-1h2v-3s-24-21-56 0v4zM252 214c31-21 54-1 54-1h2v-3s-24-20-56 0v4zM306 233h2v-2c0-1-24-21-56-1v4c31-21 54-1 54-1z"/><path class="st0" d="M318 167c-7-8-19-13-33-13-15 0-28 6-35 16-7-9-20-15-35-15-14 0-26 5-33 13l-11-2v109l71-1c1 5 5 7 9 7s7-3 9-7h70l-1-109-11 2zm-69 23c-32-19-55 1-56 1v3h2s23-20 54-1v17c-32-19-55 1-56 1v3h2s23-20 54-1v17c-32-19-55 1-56 1v3h2s23-20 54-1v27c-7-9-20-14-34-14s-27 5-34 14v-86l5-6c7-6 17-10 29-10 14 0 28 6 34 16v16zm71 69c-7-8-20-14-34-14-14 1-27 6-34 15v-86c6-10 19-16 33-17 12 0 22 4 29 10l5 6 1 86z"/></g><g><path class="st0" d="M176 126l39 23-3 7h3a38 38 0 0172 1h4l-4-9 39-22 1-2-2-1-40 23-7-9 27-31-1-2h-2l-26 31-10-5 16-44a2 2 0 00-3-1l-16 44-10-2V76l-2-1-2 1v51l-10 2-16-44a2 2 0 00-3 1l16 44-9 5-27-31h-2l-1 2 27 32-7 8-40-23-2 1 1 2zM325 152l-29 5 8 1h1l21-3 1-2-2-1zM203 156l-26-4-2 1 1 2 17 3 10-2z"/></g><g><path class="st0" d="M176 425h-6v-7h-8v10l-4-2-5-1H97v-8h-8v9l-4-1H3v8h65v46l-8-7 1-7-2-10a27 27 0 00-25-16l-9 3c-2 2-3 5-3 9v5a12 12 0 0012 12l14-1v-6l-14-1a4 4 0 01-4-4v-5l1-3 3-2 7 2c3 1 5 2 6 4l4 6 2 7-2 8a19 19 0 01-31 6l-5-6-1-8H8a28 28 0 008 19c2 3 5 5 8 6 3 2 7 2 10 2 10 0 17-4 23-13l11 8v7h8v-61h9l3 1 1 2v58h8v-61h8l1 6a16 16 0 0111 5l4 5 1 7-1 4c-5 3-9 8-9 15v6c0 3 1 6 3 8 3 3 5 4 9 4l7-1v-6l-7-1-3-1-1-3v-5a10 10 0 013-7 10 10 0 0113-1l4 6v20h8v-61h5c3 0 5 1 6 3 2 1 3 3 3 6v51h8v-60h46v6l-36 12v28l36 12v3h8v-61h4v-8h-52zm-36 36c-3-2-7-3-10-3v-3c-1-11-6-18-15-22h25v28zm76 22l-28-10v-17l28-9v36z"/><path class="st0" d="M186 492l13 3 1-6-12-4zM496 433v-8H258v8h41v5l-36 12v29l36 12v3h8v-49a19 19 0 017-1l3 2 3 1 1 3v2l-3 3h-4l-2-2-4 7a10 10 0 0015 0l3-3 2-3 1-4c0-3-1-6-3-8-4-4-10-6-15-6h-4v-4h36l-5 7-1 9v34l3 5 4 4 6 2 4-1-3-7h-1l-2-1-2-2a12 12 0 01-2-6v-28a15 15 0 015-11l5-3 6-1h49v20l-7-1c-3 0-7 1-9 3l-6-5a18 18 0 00-15 0c-2 0-3 2-5 3-1 2-3 3-3 5l-2 6v6c0 3 1 5 3 8 2 2 5 3 8 3l7-1v-6l-7-1-2-1-1-2v-5l2-6c2-2 4-3 7-3l6 2 4 5v5l6-2 2-5 5-2 4 2 2 3v29h8v-61h26v16l1 6a15 15 0 0014 8h3c4 0 8-1 11-4l1 6-2 8-4 6a21 21 0 01-14 5l-8-1-6-5a24 24 0 01-6-15v-2-1h-6v3l-1 3a25 25 0 008 19 27 27 0 0019 7 28 28 0 0028-28l-1-5-2-4-2-7h-8l-2 6c-1 2-3 2-5 2h-3l-5-2-2-3c0-2 1-3 3-5l4-1h13a13 13 0 0113 13v25c0 3 1 5 3 7s4 3 7 3v-8h-1l-1-1v-26l-1-8a21 21 0 00-12-11l-8-2h-13l-7 2v-6h46zm-197 50l-28-10v-17l28-9v36z"/></g></svg>